<svg width="60.000000" height="60.000000" viewBox="0 0 60 60" fill="none" xmlns="http://www.w3.org/2000/svg" xmlns:xlink="http://www.w3.org/1999/xlink">
	<desc>
			Created with Pixso.
	</desc>
	<defs>
		<clipPath id="clip39_35">
			<rect id="material-symbols--menu-rounded 1" rx="0.000000" width="59.000000" height="59.000000" transform="translate(0.500000 0.500000)" fill="white" fill-opacity="0"/>
		</clipPath>
	</defs>
	<g clip-path="url(#clip39_35)">
		<path id="Vector" d="M10 45C9.29 45 8.69 44.76 8.21 44.28C7.74 43.8 7.5 43.2 7.5 42.5C7.49 41.79 7.73 41.2 8.21 40.72C8.7 40.24 9.29 40 10 40L50 40C50.7 40 51.3 40.24 51.78 40.72C52.26 41.2 52.5 41.79 52.5 42.5C52.49 43.2 52.25 43.8 51.78 44.28C51.3 44.76 50.7 45 50 45L10 45ZM10 32.5C9.29 32.5 8.69 32.25 8.21 31.78C7.74 31.3 7.5 30.7 7.5 30C7.49 29.29 7.73 28.7 8.21 28.22C8.7 27.74 9.29 27.5 10 27.5L50 27.5C50.7 27.5 51.3 27.74 51.78 28.22C52.26 28.7 52.5 29.29 52.5 30C52.49 30.7 52.25 31.3 51.78 31.78C51.3 32.26 50.7 32.5 50 32.5L10 32.5ZM10 20C9.29 20 8.69 19.76 8.21 19.28C7.74 18.79 7.5 18.2 7.5 17.5C7.49 16.79 7.73 16.2 8.21 15.72C8.7 15.24 9.29 15 10 15L50 15C50.7 15 51.3 15.24 51.78 15.72C52.26 16.2 52.5 16.79 52.5 17.5C52.49 18.2 52.25 18.8 51.78 19.28C51.3 19.76 50.7 20 50 20L10 20Z" fill="#FFFFFF" fill-opacity="1.000000" fill-rule="nonzero"/>
	</g>
</svg>
