<svg width="38.250000" height="38.250000" viewBox="0 0 38.25 38.25" fill="none" xmlns="http://www.w3.org/2000/svg" xmlns:xlink="http://www.w3.org/1999/xlink">
	<desc>
			Created with Pixso.
	</desc>
	<defs>
		<clipPath id="clip84_328">
			<rect id="mynaui--cart-solid 1" rx="0.000000" width="37.250000" height="37.250000" transform="translate(0.500000 0.500000)" fill="white" fill-opacity="0"/>
		</clipPath>
	</defs>
	<g clip-path="url(#clip84_328)">
		<path id="Vector" d="M4.44 3.63C4.59 3.58 4.75 3.57 4.9 3.59C5.06 3.6 5.21 3.65 5.35 3.73C5.49 3.8 5.61 3.9 5.71 4.02C5.8 4.15 5.88 4.29 5.92 4.44L6.8 7.41L30.16 7.41C33.09 7.41 35.33 10.14 34.48 13L31.84 21.93C31.28 23.83 29.5 25.1 27.52 25.1L12.93 25.1C10.94 25.1 9.16 23.83 8.6 21.93L3.63 5.12C3.54 4.81 3.57 4.48 3.73 4.21C3.88 3.93 4.13 3.72 4.44 3.63ZM9.96 31.07C9.96 30.12 10.33 29.21 11.01 28.54C11.68 27.87 12.59 27.49 13.54 27.49C14.49 27.49 15.41 27.87 16.08 28.54C16.75 29.21 17.13 30.12 17.13 31.07C17.13 32.02 16.75 32.94 16.08 33.61C15.41 34.28 14.49 34.66 13.54 34.66C12.59 34.66 11.68 34.28 11.01 33.61C10.33 32.94 9.96 32.02 9.96 31.07ZM22.71 31.07C22.71 30.6 22.8 30.14 22.98 29.7C23.16 29.27 23.42 28.87 23.76 28.54C24.09 28.2 24.48 27.94 24.92 27.76C25.35 27.58 25.82 27.49 26.29 27.49C26.76 27.49 27.23 27.58 27.66 27.76C28.1 27.94 28.49 28.2 28.83 28.54C29.16 28.87 29.42 29.27 29.6 29.7C29.79 30.14 29.88 30.6 29.88 31.07C29.88 32.02 29.5 32.94 28.83 33.61C28.16 34.28 27.24 34.66 26.29 34.66C25.34 34.66 24.43 34.28 23.76 33.61C23.08 32.94 22.71 32.02 22.71 31.07Z" fill="#FFFFFF" fill-opacity="1.000000" fill-rule="nonzero"/>
	</g>
</svg>
