<svg width="150.000000" height="150.000000" viewBox="0 0 150 150" fill="none" xmlns="http://www.w3.org/2000/svg" xmlns:xlink="http://www.w3.org/1999/xlink">
	<desc>
			Created with Pixso.
	</desc>
	<defs>
		<clipPath id="clip74_581">
			<rect id="solar--cat-bold 1" rx="0.000000" width="149.000000" height="149.000000" transform="translate(0.500000 0.500000)" fill="white" fill-opacity="0"/>
		</clipPath>
	</defs>
	<g clip-path="url(#clip74_581)">
		<path id="Vector" d="M73.43 40.03C64.18 40.03 63.26 41.01 58.47 41.01C54.48 41.01 42.51 31.25 36.53 31.25C30.54 31.25 23.56 34.76 23.56 44.92L23.56 56.64C23.57 59.71 24.68 69.14 29.06 66.62C23.89 72.73 23.37 79.86 23.44 86.76C22.04 87.16 20.63 87.62 19.25 88.09C14.97 89.55 10.43 91.41 8.39 92.74C7.34 93.41 6.61 94.48 6.35 95.69C6.09 96.91 6.32 98.18 7 99.22C7.67 100.26 8.73 101 9.95 101.26C11.16 101.52 12.43 101.29 13.48 100.61C14.45 99.98 17.98 98.43 22.28 96.96L23.7 96.49C23.99 99.2 24.71 101.68 25.78 103.93L25.63 104.01C23.06 105.36 20.69 106.91 19.18 107.9L18.47 108.36C17.43 109.04 16.69 110.1 16.43 111.32C16.17 112.53 16.4 113.8 17.08 114.85C17.75 115.89 18.81 116.62 20.03 116.88C21.24 117.15 22.51 116.91 23.56 116.24L24.38 115.7C25.91 114.7 27.87 113.42 30.01 112.3C30.51 112.03 30.99 111.79 31.45 111.57C42.26 121.71 61.68 125 73.43 125C85.18 125 104.6 121.71 115.41 111.57C115.87 111.79 116.35 112.03 116.86 112.3C119 113.42 120.96 114.7 122.49 115.7L123.31 116.24C124.35 116.91 125.62 117.15 126.84 116.88C128.05 116.62 129.11 115.89 129.79 114.85C130.46 113.8 130.7 112.53 130.43 111.32C130.17 110.1 129.44 109.04 128.39 108.36L127.69 107.9C125.6 106.5 123.45 105.21 121.24 104.01L121.09 103.93C122.16 101.68 122.88 99.2 123.16 96.49L124.59 96.96C128.88 98.43 132.41 99.98 133.39 100.61C134.44 101.25 135.69 101.45 136.88 101.18C138.07 100.91 139.11 100.18 139.78 99.15C140.44 98.13 140.67 96.88 140.43 95.68C140.19 94.48 139.49 93.43 138.48 92.74C136.43 91.41 131.89 89.55 127.63 88.09C126.24 87.61 124.84 87.17 123.43 86.76C123.5 79.86 122.98 72.73 117.8 66.62C122.18 69.14 123.3 59.71 123.31 56.63L123.31 44.92C123.31 34.76 116.33 31.25 110.34 31.25C104.36 31.25 92.38 41.01 88.4 41.01C83.61 41.01 82.68 40.03 73.43 40.03ZM69.21 97.5C70.48 97.06 71.97 96.87 73.43 96.87C74.9 96.87 76.39 97.06 77.66 97.5C78.28 97.71 79.03 98.05 79.71 98.58C80.17 98.93 80.55 99.38 80.81 99.9C81.08 100.41 81.23 100.98 81.25 101.56C81.25 103 80.38 104 79.71 104.53C79.04 105.07 78.28 105.41 77.66 105.62C76.39 106.05 74.9 106.25 73.43 106.25C71.97 106.25 70.48 106.05 69.21 105.62C68.47 105.38 67.78 105.01 67.16 104.53C66.7 104.18 66.32 103.74 66.05 103.22C65.78 102.71 65.64 102.14 65.62 101.56C65.62 100.12 66.49 99.12 67.16 98.58C67.83 98.05 68.6 97.71 69.21 97.5ZM87 78.12C87.85 76.69 89.53 75 92.06 75C94.58 75 96.27 76.69 97.12 78.12C98.01 79.61 98.43 81.41 98.43 83.2C98.43 84.99 98.01 86.78 97.12 88.27C96.27 89.7 94.58 91.4 92.06 91.4C89.53 91.4 87.85 89.7 87 88.28C86.11 86.73 85.66 84.98 85.68 83.2C85.68 81.41 86.11 79.61 87 78.13L87 78.12ZM49.75 78.13C50.6 76.7 52.28 75 54.81 75C57.33 75 59.02 76.7 59.87 78.13C60.76 79.62 61.18 81.42 61.18 83.21C61.18 85 60.76 86.79 59.87 88.28C59.02 89.71 57.33 91.41 54.81 91.41C52.28 91.41 50.6 89.71 49.75 88.28C48.86 86.74 48.41 84.99 48.43 83.21C48.43 81.42 48.86 79.61 49.75 78.13Z" fill="#FFFFFF" fill-opacity="1.000000" fill-rule="evenodd"/>
	</g>
</svg>
