<svg width="24.000000" height="24.000000" viewBox="0 0 24 24" fill="none" xmlns="http://www.w3.org/2000/svg" xmlns:xlink="http://www.w3.org/1999/xlink">
	<desc>
			Created with Pixso.
	</desc>
	<defs>
		<clipPath id="clip93_82">
			<rect id="solar--copy-bold 1" rx="0.000000" width="23.000000" height="23.000000" transform="matrix(-1 0 0 1 24.5 0.5)" fill="white" fill-opacity="0"/>
		</clipPath>
	</defs>
	<g clip-path="url(#clip93_82)">
		<path id="Vector" d="M8.76 2L12.65 2C14.41 2 15.81 2 16.9 2.14C18.03 2.29 18.94 2.62 19.66 3.34C20.38 4.06 20.7 4.97 20.85 6.1C21 7.2 21 8.6 21 10.37L21 16.21C21 17.72 20.08 19.01 18.77 19.55C18.84 18.64 18.84 17.37 18.84 16.31L18.84 11.3C18.84 10.02 18.84 8.91 18.72 8.03C18.59 7.08 18.3 6.17 17.57 5.43C16.84 4.7 15.93 4.41 14.99 4.28C14.11 4.16 13.01 4.16 11.73 4.16L8.66 4.16C7.38 4.16 6.29 4.16 5.4 4.28C5.67 3.61 6.13 3.03 6.73 2.62C7.32 2.21 8.03 2 8.76 2Z" fill="#1F60D9" fill-opacity="1.000000" fill-rule="nonzero"/>
		<path id="Vector" d="M17.39 11.39C17.39 8.67 17.39 7.3 16.55 6.46C15.71 5.61 14.35 5.61 11.63 5.61L8.76 5.61C6.04 5.61 4.68 5.61 3.84 6.46C2.99 7.3 3 8.67 3 11.39L3 16.21C3 18.94 3 20.3 3.84 21.15C4.68 22 6.04 22 8.76 22L11.63 22C14.35 22 15.71 22 16.55 21.15C17.39 20.3 17.39 18.94 17.39 16.21L17.39 11.39Z" fill="#1F60D9" fill-opacity="1.000000" fill-rule="nonzero"/>
	</g>
</svg>
