<svg width="20.000000" height="22.500000" viewBox="0 0 20 22.5" fill="none" xmlns="http://www.w3.org/2000/svg" xmlns:xlink="http://www.w3.org/1999/xlink">
	<desc>
			Created with Pixso.
	</desc>
	<defs/>
	<path id="Vector" d="M3.75 22.5C3.06 22.5 2.47 22.25 1.98 21.76C1.49 21.27 1.25 20.68 1.25 20L1.25 3.75L0 3.75L0 1.25L6.25 1.25L6.25 0L13.75 0L13.75 1.25L20 1.25L20 3.75L18.75 3.75L18.75 20C18.75 20.68 18.5 21.27 18.01 21.76C17.52 22.25 16.93 22.5 16.25 22.5L3.75 22.5ZM6.25 17.5L8.75 17.5L8.75 6.25L6.25 6.25L6.25 17.5ZM11.25 17.5L13.75 17.5L13.75 6.25L11.25 6.25L11.25 17.5Z" fill="#1F60D9" fill-opacity="1.000000" fill-rule="nonzero"/>
</svg>
