<svg width="150.000000" height="150.000000" viewBox="0 0 150 150" fill="none" xmlns="http://www.w3.org/2000/svg" xmlns:xlink="http://www.w3.org/1999/xlink">
	<desc>
			Created with Pixso.
	</desc>
	<defs>
		<clipPath id="clip74_923">
			<rect id="mdi--dog 1" rx="0.000000" width="149.000000" height="149.000000" transform="matrix(-1 0 0 1 150.5 0.5)" fill="white" fill-opacity="0"/>
		</clipPath>
	</defs>
	<g clip-path="url(#clip74_923)">
		<path id="Vector" d="M37.5 25C48.18 25 54.68 27.06 58.43 28.81C63.25 26.43 68.75 25 75 25C81.25 25 86.75 26.43 91.56 28.81C95.31 27.06 101.81 25 112.5 25C131.25 25 143.75 75 143.75 87.5C143.75 92.68 135.5 97.43 124.12 99.37C120.12 113.37 101.25 124.06 78.12 125L78.12 98.25C81.81 95.93 87.5 91.75 87.5 87.5C87.5 81.25 75 81.25 75 81.25C75 81.25 62.5 81.25 62.5 87.5C62.5 91.75 68.18 95.93 71.87 98.25L71.87 125C48.75 124.06 29.87 113.37 25.87 99.37C14.5 97.43 6.25 92.68 6.25 87.5C6.25 75 18.75 25 37.5 25ZM124.06 86.68C127.18 85.93 129.62 85.06 131.25 84.37C129.68 67.06 117.5 40 112.18 37.5C108.81 37.5 106.25 37.87 103.93 38.18C117.06 52.62 122.25 75.25 124.06 86.68ZM93.75 75C95.4 75 96.99 74.34 98.16 73.16C99.34 71.99 100 70.4 100 68.75C100 65.37 97.18 62.5 93.75 62.5C92.09 62.5 90.5 63.15 89.33 64.33C88.15 65.5 87.5 67.09 87.5 68.75C87.5 72.25 90.31 75 93.75 75ZM56.25 75C57.9 75 59.49 74.34 60.66 73.16C61.84 71.99 62.5 70.4 62.5 68.75C62.5 65.37 59.68 62.5 56.25 62.5C54.59 62.5 53 63.15 51.83 64.33C50.65 65.5 50 67.09 50 68.75C50 72.25 52.81 75 56.25 75ZM25.93 86.68C27.75 75.25 32.93 52.62 46.06 38.18C43.75 37.87 41.18 37.5 37.81 37.5C32.5 40 20.31 67.06 18.75 84.37C20.31 85.06 22.75 85.93 25.93 86.68Z" fill="#FFFFFF" fill-opacity="1.000000" fill-rule="nonzero"/>
	</g>
</svg>
