<svg width="30.000000" height="30.000000" viewBox="0 0 30 30" fill="none" xmlns="http://www.w3.org/2000/svg" xmlns:xlink="http://www.w3.org/1999/xlink">
	<desc>
			Created with Pixso.
	</desc>
	<defs>
		<clipPath id="clip182_671">
			<rect id="lucide--edit 1" rx="0.000000" width="29.000000" height="29.000000" transform="translate(0.500000 0.500000)" fill="white" fill-opacity="0"/>
		</clipPath>
	</defs>
	<g clip-path="url(#clip182_671)">
		<path id="Vector" d="M15 3.75L6.25 3.75C5.58 3.75 4.95 4.01 4.48 4.48C4.01 4.95 3.75 5.58 3.75 6.25L3.75 23.75C3.75 24.41 4.01 25.04 4.48 25.51C4.95 25.98 5.58 26.25 6.25 26.25L23.75 26.25C24.41 26.25 25.04 25.98 25.51 25.51C25.98 25.04 26.25 24.41 26.25 23.75L26.25 15" stroke="#1F60D9" stroke-opacity="1.000000" stroke-width="2.000000" stroke-linejoin="round" stroke-linecap="round"/>
		<path id="Vector" d="M24.84 2.5C25.54 2.5 26.22 2.78 26.71 3.28C27.21 3.77 27.49 4.45 27.49 5.15C27.49 5.85 27.21 6.53 26.71 7.03L15.45 18.29C15.15 18.59 14.78 18.81 14.38 18.92L10.79 19.97C10.68 20.01 10.57 20.01 10.46 19.98C10.35 19.95 10.25 19.9 10.17 19.82C10.09 19.74 10.04 19.64 10.01 19.53C9.98 19.42 9.98 19.31 10.02 19.2L11.07 15.61C11.18 15.21 11.4 14.84 11.7 14.54L22.96 3.28C23.46 2.78 24.14 2.5 24.84 2.5Z" stroke="#1F60D9" stroke-opacity="1.000000" stroke-width="2.000000" stroke-linejoin="round"/>
	</g>
</svg>
