<svg width="124.987427" height="116.933960" viewBox="0 0 124.987 116.934" fill="none" xmlns="http://www.w3.org/2000/svg" xmlns:xlink="http://www.w3.org/1999/xlink">
	<desc>
			Created with Pixso.
	</desc>
	<defs/>
	<path id="Vector" d="M78.42 58.83C81.11 58.83 83.3 61.02 83.3 63.71L83.3 69.57C83.3 70.86 82.79 72.11 81.87 73.02C80.96 73.94 79.71 74.45 78.42 74.45C77.12 74.45 75.88 73.94 74.97 73.02C74.05 72.11 73.54 70.86 73.54 69.57L73.54 63.71C73.54 61.02 75.72 58.83 78.42 58.83ZM46.56 58.83C49.25 58.83 51.44 61.02 51.44 63.71L51.44 69.57C51.44 70.86 50.93 72.11 50.01 73.02C49.1 73.94 47.85 74.45 46.56 74.45C45.26 74.45 44.02 73.94 43.11 73.02C42.19 72.11 41.68 70.86 41.68 69.57L41.68 63.71C41.68 61.02 43.86 58.83 46.56 58.83ZM56.29 80.61C56.29 82.52 59.93 87.27 62.46 87.27C65.17 87.27 68.68 82.93 68.68 80.62C68.68 78.3 65.94 78.08 62.46 78.08C58.98 78.08 56.29 78.24 56.29 80.62L56.29 80.61ZM68.49 98.35C66.2 98.52 64.03 97.45 62.49 95.28C60.94 97.44 58.77 98.5 56.48 98.33C53.24 98.08 50.52 95.28 50.78 91.53C50.79 91.27 50.85 91.01 50.97 90.77C51.08 90.53 51.23 90.32 51.43 90.15C51.62 89.97 51.85 89.84 52.1 89.75C52.35 89.67 52.61 89.63 52.87 89.65C53.13 89.67 53.39 89.74 53.62 89.86C53.85 89.98 54.06 90.14 54.23 90.34C54.4 90.54 54.52 90.78 54.6 91.03C54.68 91.28 54.7 91.54 54.68 91.8C54.57 93.36 55.62 94.34 56.78 94.43C57.74 94.5 59.59 93.91 60.5 90.27C60.61 89.83 60.87 89.45 61.23 89.18C61.59 88.91 62.04 88.77 62.49 88.8C62.94 88.77 63.38 88.91 63.75 89.18C64.11 89.45 64.37 89.83 64.48 90.27C65.39 93.91 67.25 94.53 68.22 94.46C69.36 94.38 70.41 93.41 70.3 91.86C70.27 91.6 70.3 91.34 70.38 91.09C70.45 90.84 70.58 90.61 70.75 90.41C70.92 90.2 71.12 90.04 71.36 89.92C71.59 89.8 71.85 89.73 72.11 89.71C72.37 89.7 72.63 89.73 72.88 89.81C73.13 89.9 73.35 90.03 73.55 90.21C73.74 90.38 73.9 90.6 74.01 90.83C74.12 91.07 74.19 91.33 74.2 91.59C74.46 95.34 71.74 98.13 68.49 98.35ZM81.41 29.28C81.41 31.08 81.76 32.86 82.45 34.52C83.14 36.18 84.15 37.68 85.42 38.95C86.68 40.22 88.19 41.23 89.85 41.92C91.51 42.6 93.29 42.96 95.08 42.96C96.88 42.96 98.66 42.6 100.32 41.92C101.97 41.23 103.48 40.22 104.75 38.95C106.02 37.68 107.03 36.18 107.71 34.52C108.4 32.86 108.76 31.08 108.76 29.28C108.76 25.66 107.31 22.18 104.75 19.62C102.19 17.05 98.71 15.61 95.08 15.61C91.46 15.61 87.98 17.05 85.42 19.62C82.85 22.18 81.41 25.66 81.41 29.28ZM30.02 42.96C28.22 42.96 26.44 42.6 24.78 41.92C23.13 41.23 21.62 40.22 20.35 38.95C19.08 37.68 18.07 36.18 17.39 34.52C16.7 32.86 16.34 31.08 16.34 29.28C16.34 27.49 16.7 25.71 17.39 24.05C18.07 22.39 19.08 20.89 20.35 19.62C21.62 18.35 23.13 17.34 24.78 16.65C26.44 15.97 28.22 15.61 30.02 15.61C33.64 15.61 37.12 17.05 39.68 19.62C42.25 22.18 43.69 25.66 43.69 29.28C43.69 32.91 42.25 36.39 39.68 38.95C37.12 41.52 33.64 42.96 30.02 42.96Z" fill="#FFFFFF" fill-opacity="1.000000" fill-rule="nonzero"/>
	<path id="Vector" d="M65.32 23.95C63.43 23.76 61.53 23.73 59.64 23.88C58.59 18.94 56.31 14.34 53.02 10.5C49.72 6.67 45.52 3.72 40.79 1.94C36.06 0.15 30.95 -0.41 25.95 0.29C20.94 1 16.19 2.95 12.14 5.97C8.08 8.99 4.85 12.98 2.74 17.57C0.63 22.17 -0.29 27.22 0.07 32.26C0.42 37.31 2.04 42.18 4.77 46.43C7.5 50.69 11.26 54.19 15.7 56.61C14.27 59.04 13.02 61.49 11.96 63.9C9.6 69.25 7.98 74.93 7.98 80.13C7.98 93.3 14.34 102.75 22.28 108.65C29.94 114.35 39.23 116.93 46.38 116.93C54.16 116.93 58.35 115.09 61.26 113.76L62.11 113.38L62.18 113.35L62.36 113.41L63.26 113.76C66.68 115.1 71.62 116.93 81.65 116.93C89.83 116.93 98.56 113.06 105.17 106.91C111.92 100.62 117.06 91.39 117.06 80.13C117.06 74.78 115.29 69.03 112.79 63.69C111.72 61.39 110.45 59.05 109.04 56.74C113.51 54.35 117.31 50.87 120.08 46.63C122.85 42.38 124.51 37.5 124.9 32.45C125.28 27.39 124.39 22.32 122.29 17.7C120.2 13.08 116.98 9.07 112.92 6.03C108.87 2.98 104.11 1.01 99.09 0.3C94.07 -0.42 88.95 0.14 84.2 1.93C79.46 3.72 75.24 6.67 71.94 10.52C68.64 14.37 66.36 18.99 65.32 23.95ZM72.97 25.58C74.1 20.17 77.2 15.38 81.66 12.12C86.12 8.86 91.63 7.37 97.13 7.94C102.62 8.51 107.71 11.09 111.41 15.19C115.12 19.29 117.17 24.62 117.18 30.14C117.18 35.79 115.03 41.23 111.18 45.37C107.33 49.5 102.05 52.02 96.41 52.43C98.27 54.7 99.99 57.07 101.57 59.53C106.32 66.94 109.25 74.44 109.25 80.13C109.25 97.64 93.38 109.12 81.66 109.12C72.84 109.12 68.88 107.57 66.12 106.48C64.63 105.9 63.49 105.46 62.13 105.46C60.63 105.46 59.46 106 58.01 106.66C55.68 107.73 52.63 109.12 46.38 109.12C35.33 109.12 15.8 100.82 15.8 80.13C15.8 74.51 18.54 66.94 23.1 59.46C24.59 57.01 26.23 54.64 28 52.38C22.47 51.85 17.34 49.27 13.61 45.16C9.87 41.05 7.8 35.69 7.8 30.14C7.8 27.07 8.44 24.03 9.66 21.22C10.89 18.4 12.68 15.87 14.93 13.78C17.18 11.69 19.84 10.08 22.74 9.07C25.64 8.05 28.71 7.64 31.77 7.86C34.84 8.09 37.82 8.94 40.54 10.37C43.26 11.8 45.65 13.77 47.57 16.17C49.49 18.57 50.9 21.33 51.7 24.3C52.51 27.26 52.69 30.36 52.24 33.4C54.82 32.46 57.52 31.88 60.25 31.67C61.74 31.56 63.24 31.59 64.73 31.75C67.5 32.08 70.21 32.77 72.8 33.82C72.35 31.09 72.41 28.29 72.97 25.58Z" fill="#FFFFFF" fill-opacity="1.000000" fill-rule="nonzero"/>
</svg>
