<svg width="114.750000" height="89.250000" viewBox="0 0 114.75 89.25" fill="none" xmlns="http://www.w3.org/2000/svg" xmlns:xlink="http://www.w3.org/1999/xlink">
	<desc>
			Created with Pixso.
	</desc>
	<defs>
		<clipPath id="clip162_1884">
			<rect id="logo" rx="0.000000" width="113.750000" height="88.250000" transform="translate(0.500000 0.500000)" fill="white" fill-opacity="0"/>
		</clipPath>
	</defs>
	<g clip-path="url(#clip162_1884)">
		<path id="Vector" d="M19.91 66.27C18.12 65.27 16.29 64.61 14.43 64.28L14.43 80.96L8.37 80.96L8.37 64.28C6.48 64.61 4.65 65.27 2.9 66.27L0.88 61.86C2.37 60.97 4.01 60.28 5.8 59.81C7.62 59.34 9.49 59.11 11.4 59.11C13.32 59.11 15.18 59.34 16.97 59.81C18.79 60.28 20.44 60.97 21.93 61.86L19.91 66.27ZM44.21 59.54L44.21 74.07C44.21 76.23 43.78 78.09 42.92 79.64C42.07 81.17 40.84 82.32 39.25 83.1C37.68 83.89 35.82 84.29 33.65 84.29C31.76 84.29 30.03 84.05 28.48 83.56C26.95 83.09 25.64 82.42 24.53 81.54L26.8 77.16C27.78 77.88 28.83 78.42 29.95 78.78C31.07 79.15 32.22 79.34 33.41 79.34C35.04 79.34 36.23 78.94 36.99 78.14C37.76 77.35 38.15 76.1 38.15 74.41L38.15 73.43C36.78 75.08 34.86 75.91 32.37 75.91C29.68 75.91 27.6 75.14 26.16 73.61C24.71 72.06 23.98 69.85 23.98 66.97L23.98 59.54L30.04 59.54L30.04 66.58C30.04 68.02 30.37 69.12 31.02 69.85C31.69 70.56 32.66 70.92 33.93 70.92C35.21 70.92 36.23 70.54 36.99 69.79C37.76 69.03 38.15 67.86 38.15 66.27L38.15 59.54L44.21 59.54ZM61.72 69.82C62.9 70.27 63.83 70.94 64.5 71.84C65.18 72.74 65.51 73.77 65.51 74.93C65.51 76.26 65.06 77.41 64.17 78.39C63.27 79.37 62.06 80.12 60.53 80.65C59 81.16 57.31 81.42 55.48 81.42C54.03 81.42 52.55 81.24 51.04 80.9C49.55 80.55 48.12 80.03 46.76 79.34L48.56 75.11C49.52 75.6 50.54 75.98 51.62 76.25C52.72 76.49 53.78 76.61 54.8 76.61C56.15 76.61 57.25 76.4 58.11 75.97C58.96 75.52 59.39 74.9 59.39 74.1C59.39 73.47 59.13 73 58.6 72.7C58.07 72.39 57.35 72.24 56.46 72.24L50.98 72.24L50.98 67.8L55.97 67.8C56.78 67.8 57.41 67.64 57.86 67.31C58.31 66.98 58.54 66.54 58.54 65.99C58.54 65.3 58.19 64.77 57.5 64.4C56.8 64.01 55.9 63.82 54.8 63.82C53.91 63.82 52.96 63.95 51.96 64.22C50.96 64.46 50.01 64.82 49.11 65.29L47.34 60.7C49.62 59.6 52.13 59.05 54.86 59.05C56.62 59.05 58.24 59.3 59.73 59.81C61.24 60.3 62.43 61.02 63.31 61.95C64.21 62.89 64.66 64.01 64.66 65.29C64.66 66.29 64.39 67.19 63.86 67.98C63.35 68.76 62.64 69.37 61.72 69.82ZM88.56 59.54L88.56 80.96L82.68 80.96L82.68 78.51C81.99 79.45 81.11 80.16 80.05 80.65C78.99 81.14 77.8 81.39 76.47 81.39C73.94 81.39 71.97 80.58 70.56 78.97C69.16 77.34 68.45 75.02 68.45 72.02L68.45 59.54L74.51 59.54L74.51 71.84C74.51 73.35 74.85 74.48 75.52 75.24C76.21 75.99 77.15 76.37 78.34 76.37C79.58 76.37 80.58 75.96 81.34 75.14C82.11 74.33 82.5 73.12 82.5 71.53L82.5 59.54L88.56 59.54ZM101.65 72.76L98.9 72.76L98.9 80.96L92.87 80.96L92.87 59.54L98.9 59.54L98.9 67.86L101.81 67.86L106.92 59.54L113.28 59.54L106.58 69.88L113.34 80.96L106.52 80.96L101.65 72.76Z" fill="#FFFFFF" fill-opacity="1.000000" fill-rule="nonzero"/>
		<mask id="mask162_1887" mask-type="alpha" maskUnits="userSpaceOnUse" x="30.996521" y="0.637451" width="57.375000" height="51.000000">
			<path id="Vector" d="M30.99 0.63L88.37 0.63L88.37 51.63L30.99 51.63L30.99 0.63Z" fill="#FAB12F" fill-opacity="1.000000" fill-rule="evenodd"/>
		</mask>
		<g mask="url(#mask162_1887)">
			<path id="Vector" d="M61.83 16.42L64.13 2.6C64.32 1.47 65.31 0.63 66.46 0.63C67.21 0.63 67.91 0.98 68.35 1.58L70.04 3.82L75.23 3.82C76.49 3.82 77.71 4.33 78.6 5.22L80.4 7.01L85.98 7.01C87.3 7.01 88.37 8.07 88.37 9.4L88.37 11.79C88.37 16.19 84.8 19.76 80.4 19.76L73.49 19.76L72.99 22.8L61.83 16.42ZM72.43 26.14L72.43 48.45C72.43 50.21 71 51.63 69.24 51.63L66.05 51.63C64.29 51.63 62.87 50.21 62.87 48.45L62.87 36.97C60.48 38.2 57.77 38.88 54.9 38.88C52.03 38.88 49.32 38.2 46.93 36.97L46.93 48.45C46.93 50.21 45.5 51.63 43.74 51.63L40.55 51.63C38.79 51.63 37.37 50.21 37.37 48.45L37.37 25.51C34.5 24.43 32.25 22 31.47 18.89L31.09 17.35C30.66 15.64 31.7 13.91 33.41 13.48C35.13 13.05 36.85 14.09 37.28 15.8L37.67 17.35C38.01 18.76 39.29 19.76 40.75 19.76L61.25 19.76L72.43 26.14ZM77.21 8.6C77.21 8.18 77.04 7.77 76.74 7.47C76.44 7.18 76.04 7.01 75.62 7.01C75.19 7.01 74.79 7.18 74.49 7.47C74.19 7.77 74.02 8.18 74.02 8.6C74.02 9.02 74.19 9.43 74.49 9.73C74.79 10.03 75.19 10.2 75.62 10.2C76.04 10.2 76.44 10.03 76.74 9.73C77.04 9.43 77.21 9.02 77.21 8.6Z" fill="#FFFFFF" fill-opacity="1.000000" fill-rule="nonzero"/>
		</g>
	</g>
</svg>
