<svg width="48.000000" height="48.000000" viewBox="0 0 48 48" fill="none" xmlns="http://www.w3.org/2000/svg" xmlns:xlink="http://www.w3.org/1999/xlink">
	<desc>
			Created with Pixso.
	</desc>
	<defs>
		<clipPath id="clip288_3872">
			<rect id="iconamoon--profile-fill 1" rx="0.000000" width="47.000000" height="47.000000" transform="translate(0.500000 0.500000)" fill="white" fill-opacity="0"/>
		</clipPath>
	</defs>
	<g clip-path="url(#clip288_3872)">
		<path id="Vector" d="M16 14C16 11.87 16.84 9.84 18.34 8.34C19.84 6.84 21.87 6 24 6C26.12 6 28.15 6.84 29.65 8.34C31.15 9.84 32 11.87 32 14C32 16.12 31.15 18.15 29.65 19.65C28.15 21.15 26.12 22 24 22C21.87 22 19.84 21.15 18.34 19.65C16.84 18.15 16 16.12 16 14ZM16 26C13.34 26 10.8 27.05 8.92 28.92C7.05 30.8 6 33.34 6 36C6 37.59 6.63 39.11 7.75 40.24C8.88 41.36 10.4 42 12 42L36 42C37.59 42 39.11 41.36 40.24 40.24C41.36 39.11 42 37.59 42 36C42 33.34 40.94 30.8 39.07 28.92C37.19 27.05 34.65 26 32 26L16 26Z" fill="#FFFFFF" fill-opacity="1.000000" fill-rule="evenodd"/>
	</g>
</svg>
