<svg width="30.000000" height="30.000000" viewBox="0 0 30 30" fill="none" xmlns="http://www.w3.org/2000/svg" xmlns:xlink="http://www.w3.org/1999/xlink">
	<desc>
			Created with Pixso.
	</desc>
	<defs>
		<clipPath id="clip284_64">
			<rect id="fa6-solid--repeat 1" rx="0.000000" width="29.000000" height="29.000000" transform="translate(0.500000 0.500000)" fill="white" fill-opacity="0"/>
		</clipPath>
	</defs>
	<g clip-path="url(#clip284_64)">
		<path id="Vector" d="M0 13.12C0 14.16 0.83 15 1.87 15C2.91 15 3.75 14.16 3.75 13.12C3.75 10.01 6.26 7.5 9.37 7.5L18.75 7.5L18.75 9.37C18.75 10.13 19.2 10.81 19.91 11.1C20.61 11.4 21.41 11.23 21.95 10.7L25.7 6.95C26.43 6.22 26.43 5.03 25.7 4.3L21.95 0.55C21.41 0.01 20.61 -0.15 19.91 0.14C19.2 0.43 18.75 1.11 18.75 1.87L18.75 3.75L9.37 3.75C4.19 3.75 0 7.94 0 13.12ZM30 16.87C30 15.83 29.16 15 28.12 15C27.08 15 26.25 15.83 26.25 16.87C26.25 19.98 23.73 22.5 20.62 22.5L11.25 22.5L11.25 20.62C11.25 19.86 10.79 19.18 10.08 18.89C9.38 18.59 8.58 18.76 8.04 19.29L4.29 23.04C3.56 23.77 3.56 24.96 4.29 25.69L8.04 29.44C8.58 29.98 9.38 30.14 10.08 29.85C10.79 29.56 11.25 28.88 11.25 28.11L11.25 26.24L20.62 26.24C25.8 26.24 30 22.04 30 16.86L30 16.87Z" fill="#FFFFFF" fill-opacity="1.000000" fill-rule="nonzero"/>
	</g>
</svg>
