<svg width="250.000000" height="250.000000" viewBox="0 0 250 250" fill="none" xmlns="http://www.w3.org/2000/svg" xmlns:xlink="http://www.w3.org/1999/xlink">
	<desc>
			Created with Pixso.
	</desc>
	<defs>
		<clipPath id="clip54_27">
			<rect id="mdi--paw 1" rx="0.000000" width="65.666664" height="65.666664" transform="translate(92.166656 48.416504)" fill="white" fill-opacity="0"/>
		</clipPath>
		<clipPath id="clip54_25">
			<rect id="gridicons--house 1" rx="0.000000" width="249.000000" height="249.000000" transform="translate(0.500000 0.500000)" fill="white" fill-opacity="0"/>
		</clipPath>
	</defs>
	<rect id="gridicons--house 1" rx="0.000000" width="249.000000" height="249.000000" transform="translate(0.500000 0.500000)" fill="#FFFFFF" fill-opacity="0"/>
	<g clip-path="url(#clip54_25)">
		<path id="Vector" d="M229.16 93.75L125 10.41L20.83 93.75L20.83 114.58L41.66 114.58L41.66 218.75L93.75 218.75L93.75 177.08C93.75 168.79 97.04 160.84 102.9 154.98C108.76 149.12 116.71 145.83 125 145.83C133.28 145.83 141.23 149.12 147.09 154.98C152.95 160.84 156.25 168.79 156.25 177.08L156.25 218.75L208.33 218.75L208.33 114.58L229.16 114.58L229.16 93.75Z" fill="#FFFFFF" fill-opacity="1.000000" fill-rule="nonzero"/>
		<g clip-path="url(#clip54_27)">
			<path id="Vector" d="M114.86 56.25C118.13 55.77 121.61 59.36 122.61 64.3C123.61 69.22 121.8 73.61 118.52 74.11C115.27 74.61 111.77 71.02 110.75 66.08C109.72 61.16 111.58 56.77 114.86 56.25ZM134.72 56.25C138.02 56.77 139.86 61.16 138.88 66.08C137.83 71.02 134.36 74.61 131.08 74.11C127.77 73.61 125.97 69.22 127 64.3C128 59.36 131.47 55.77 134.72 56.25ZM100 69.02C103.16 67.66 107.47 70.13 109.72 74.44C111.83 78.83 111.11 83.44 107.97 84.8C104.83 86.16 100.55 83.72 98.36 79.36C96.16 75 96.94 70.36 100 69.02ZM150 69.02C153.05 70.36 153.83 75 151.63 79.36C149.44 83.72 145.16 86.16 142.02 84.8C138.88 83.44 138.16 78.83 140.27 74.44C142.52 70.13 146.83 67.66 150 69.02ZM145.36 98.97C145.47 101.58 143.47 104.47 141.08 105.55C136.11 107.83 130.22 103.11 124.69 103.11C119.16 103.11 113.22 108.02 108.33 105.55C105.55 104.19 103.63 100.58 104 97.58C104.5 93.44 109.47 91.22 112.41 88.19C116.33 84.27 119.11 76.91 124.69 76.91C130.25 76.91 133.19 84.16 136.94 88.19C140.02 91.58 145.16 94.44 145.36 98.97Z" fill="#1F60D9" fill-opacity="1.000000" fill-rule="nonzero"/>
		</g>
	</g>
</svg>
