<svg width="250.000000" height="222.222168" viewBox="0 0 250 222.222" fill="none" xmlns="http://www.w3.org/2000/svg" xmlns:xlink="http://www.w3.org/1999/xlink">
	<desc>
			Created with Pixso.
	</desc>
	<defs>
		<clipPath id="clip54_60">
			<rect id="fa6-solid--dog 1" rx="0.000000" width="249.000000" height="221.222214" transform="translate(0.500000 0.500000)" fill="white" fill-opacity="0"/>
		</clipPath>
	</defs>
	<g clip-path="url(#clip54_60)">
		<path id="Vector" d="M134.37 68.79L144.4 8.59C145.22 3.64 149.52 0 154.55 0C157.81 0 160.85 1.51 162.8 4.12L170.13 13.88L192.75 13.88C198.26 13.88 203.55 16.1 207.46 20L215.27 27.77L239.58 27.77C245.35 27.77 250 32.42 250 38.19L250 48.61C250 67.79 234.46 83.33 215.27 83.33L185.2 83.33L182.98 96.57L134.37 68.79ZM180.55 111.15L180.55 208.33C180.55 216.01 174.34 222.22 166.66 222.22L152.77 222.22C145.09 222.22 138.88 216.01 138.88 208.33L138.88 158.33C128.47 163.67 116.66 166.66 104.16 166.66C91.66 166.66 79.86 163.67 69.44 158.33L69.44 208.33C69.44 216.01 63.23 222.22 55.55 222.22L41.66 222.22C33.98 222.22 27.77 216.01 27.77 208.33L27.77 108.42C15.27 103.68 5.46 93.09 2.08 79.55L0.43 72.83C-1.44 65.4 3.08 57.85 10.54 55.98C18.01 54.12 25.52 58.63 27.38 66.1L29.07 72.83C30.59 78.99 36.15 83.33 42.53 83.33L131.85 83.33L180.55 111.15ZM201.38 34.72C201.38 32.88 200.65 31.11 199.35 29.81C198.05 28.5 196.28 27.77 194.44 27.77C192.6 27.77 190.83 28.5 189.53 29.81C188.23 31.11 187.5 32.88 187.5 34.72C187.5 36.56 188.23 38.33 189.53 39.63C190.83 40.93 192.6 41.66 194.44 41.66C196.28 41.66 198.05 40.93 199.35 39.63C200.65 38.33 201.38 36.56 201.38 34.72Z" fill="#FFFFFF" fill-opacity="1.000000" fill-rule="nonzero"/>
	</g>
</svg>
