<svg width="250.000000" height="250.000000" viewBox="0 0 250 250" fill="none" xmlns="http://www.w3.org/2000/svg" xmlns:xlink="http://www.w3.org/1999/xlink">
	<desc>
			Created with Pixso.
	</desc>
	<defs>
		<clipPath id="clip54_49">
			<rect id="humbleicons--scissors 1" rx="0.000000" width="249.000000" height="249.000000" transform="translate(0.500000 0.500000)" fill="white" fill-opacity="0"/>
		</clipPath>
	</defs>
	<g clip-path="url(#clip54_49)">
		<path id="Vector" d="M208.33 62.5C171.11 85.67 146.42 102.64 119.27 125C109.18 133.33 99.28 141.87 89.56 150.62L89.56 150.63C96.57 155.05 101.55 162.07 103.38 170.15C105.22 178.23 103.77 186.71 99.36 193.72C94.94 200.74 87.92 205.71 79.84 207.55C71.76 209.39 63.28 207.94 56.27 203.53C52.79 201.34 49.78 198.49 47.41 195.14C45.04 191.79 43.35 188.01 42.44 184.01C41.53 180.01 41.41 175.86 42.1 171.82C42.79 167.77 44.27 163.9 46.46 160.43C48.64 156.95 51.49 153.94 54.84 151.57C58.19 149.2 61.97 147.51 65.98 146.6C69.98 145.69 74.12 145.57 78.17 146.26C82.21 146.95 86.08 148.43 89.56 150.62M208.33 187.5C180.97 170.45 160.39 156.78 140.62 141.85M98.42 90.99C100.79 87.64 102.48 83.85 103.39 79.85C104.3 75.85 104.42 71.7 103.73 67.66C103.04 63.61 101.56 59.74 99.37 56.27C97.18 52.79 94.34 49.78 90.99 47.41C87.64 45.03 83.85 43.34 79.85 42.43C75.85 41.52 71.7 41.41 67.66 42.1C63.61 42.79 59.74 44.27 56.27 46.45C49.25 50.87 44.27 57.89 42.43 65.97C40.59 74.06 42.04 82.54 46.45 89.56C50.87 96.57 57.89 101.55 65.97 103.39C74.06 105.23 82.54 103.79 89.56 99.37C93.03 97.18 96.04 94.34 98.42 90.99ZM89.56 99.37C99.28 108.12 109.18 116.66 119.27 125" stroke="#FFFFFF" stroke-opacity="1.000000" stroke-width="15.000000" stroke-linejoin="round" stroke-linecap="round"/>
	</g>
</svg>
