<svg width="17.122604" height="16.353271" viewBox="0 0 17.1226 16.3533" fill="none" xmlns="http://www.w3.org/2000/svg" xmlns:xlink="http://www.w3.org/1999/xlink">
	<desc>
			Created with Pixso.
	</desc>
	<defs/>
	<path id="Vector" d="M8.56 13.7L4.41 16.2C4.22 16.31 4.03 16.36 3.83 16.35C3.63 16.33 3.46 16.26 3.31 16.15C3.16 16.03 3.04 15.88 2.96 15.71C2.87 15.53 2.86 15.34 2.91 15.12L4.01 10.4L0.33 7.22C0.16 7.07 0.06 6.9 0.02 6.71C-0.02 6.52 -0.01 6.33 0.06 6.15C0.12 5.96 0.22 5.81 0.36 5.69C0.49 5.58 0.67 5.5 0.91 5.47L5.76 5.05L7.63 0.59C7.71 0.4 7.84 0.25 8.02 0.15C8.19 0.05 8.37 0 8.56 0C8.74 0 8.92 0.05 9.09 0.15C9.27 0.25 9.4 0.4 9.48 0.59L11.36 5.05L16.21 5.47C16.44 5.5 16.62 5.58 16.76 5.69C16.89 5.81 16.99 5.96 17.06 6.15C17.12 6.33 17.14 6.52 17.09 6.71C17.05 6.9 16.95 7.07 16.78 7.22L13.11 10.4L14.21 15.12C14.26 15.34 14.24 15.53 14.16 15.71C14.07 15.88 13.96 16.03 13.81 16.15C13.66 16.26 13.48 16.33 13.28 16.35C13.08 16.36 12.89 16.31 12.71 16.2L8.56 13.7Z" fill="#FAB12F" fill-opacity="1.000000" fill-rule="nonzero"/>
</svg>
