<svg width="40.000000" height="40.000000" viewBox="0 0 40 40" fill="none" xmlns="http://www.w3.org/2000/svg" xmlns:xlink="http://www.w3.org/1999/xlink">
	<desc>
			Created with Pixso.
	</desc>
	<defs>
		<clipPath id="clip162_1956">
			<rect id="ic--baseline-telegram 1" rx="0.000000" width="39.000000" height="39.000000" transform="translate(0.500000 0.500000)" fill="white" fill-opacity="0"/>
		</clipPath>
	</defs>
	<g clip-path="url(#clip162_1956)">
		<path id="Vector" d="M20 3.33C10.8 3.33 3.33 10.79 3.33 19.99C3.33 29.19 10.8 36.66 20 36.66C29.2 36.66 36.66 29.19 36.66 19.99C36.66 10.79 29.2 3.33 20 3.33ZM27.73 14.66C27.48 17.29 26.4 23.69 25.85 26.64C25.61 27.89 25.15 28.31 24.71 28.36C23.75 28.44 23.01 27.73 22.08 27.11C20.61 26.14 19.78 25.54 18.36 24.61C16.71 23.53 17.78 22.93 18.73 21.96C18.98 21.71 23.25 17.83 23.33 17.48C23.34 17.43 23.34 17.37 23.32 17.32C23.31 17.27 23.28 17.22 23.25 17.18C23.15 17.09 23.01 17.13 22.9 17.14C22.75 17.18 20.41 18.73 15.86 21.79C15.2 22.24 14.6 22.48 14.06 22.46C13.46 22.44 12.33 22.13 11.48 21.84C10.43 21.51 9.61 21.33 9.68 20.74C9.71 20.44 10.13 20.14 10.91 19.83C15.78 17.71 19.01 16.31 20.63 15.64C25.26 13.71 26.21 13.38 26.85 13.38C26.98 13.38 27.3 13.41 27.5 13.58C27.66 13.71 27.71 13.89 27.73 14.03C27.71 14.13 27.75 14.43 27.73 14.66Z" fill="#FFFFFF" fill-opacity="1.000000" fill-rule="nonzero"/>
	</g>
</svg>
