<svg width="40.000000" height="40.000000" viewBox="0 0 40 40" fill="none" xmlns="http://www.w3.org/2000/svg" xmlns:xlink="http://www.w3.org/1999/xlink">
	<desc>
			Created with Pixso.
	</desc>
	<defs>
		<clipPath id="clip162_1958">
			<rect id="vk-icon" rx="0.000000" width="39.000000" height="39.000000" transform="translate(0.500000 0.500000)" fill="white" fill-opacity="0"/>
		</clipPath>
	</defs>
	<g clip-path="url(#clip162_1958)">
		<path id="Vector" d="M7.09 7.1C5 9.22 5 12.6 5 19.39L5 20.6C5 27.37 5 30.77 7.09 32.89C9.21 35 12.61 35 19.4 35L20.6 35C27.38 35 30.77 35 32.9 32.89C35 30.77 35 27.39 35 20.6L35 19.39C35 12.62 35 9.22 32.9 7.1C30.78 5 27.39 5 20.6 5L19.4 5C12.62 5 9.22 5 7.09 7.1ZM10.06 14.12L13.5 14.12C13.61 19.85 16.12 22.27 18.12 22.77L18.12 14.12L21.36 14.12L21.36 19.06C23.33 18.85 25.41 16.6 26.11 14.12L29.33 14.12C29.06 15.4 28.54 16.61 27.78 17.69C27.03 18.76 26.06 19.66 24.95 20.35C26.19 20.97 27.3 21.85 28.18 22.92C29.07 24 29.71 25.26 30.08 26.6L26.53 26.6C25.77 24.24 23.87 22.39 21.36 22.14L21.36 26.6L20.96 26.6C14.12 26.6 10.22 21.93 10.06 14.12Z" fill="#FFFFFF" fill-opacity="1.000000" fill-rule="nonzero"/>
	</g>
</svg>
